<svg xmlns="http://www.w3.org/2000/svg" width="24" height="24" viewBox="0 0 24 24" fill="none" stroke="currentColor" stroke-width="2" stroke-linecap="round" stroke-linejoin="round" class="lucide lucide-sparkles w-5 h-5 text-[oklch(0.55_0.14_55)]" data-loc="client/src/components/sections/AddOns.tsx:82"><path d="M9.937 15.5A2 2 0 0 0 8.5 14.063l-6.135-1.582a.5.5 0 0 1 0-.962L8.5 9.936A2 2 0 0 0 9.937 8.5l1.582-6.135a.5.5 0 0 1 .963 0L14.063 8.5A2 2 0 0 0 15.5 9.937l6.135 1.581a.5.5 0 0 1 0 .964L15.5 14.063a2 2 0 0 0-1.437 1.437l-1.582 6.135a.5.5 0 0 1-.963 0z"></path><path d="M20 3v4"></path><path d="M22 5h-4"></path><path d="M4 17v2"></path><path d="M5 18H3"></path></svg><svg xmlns="http://www.w3.org/2000/svg" width="24" height="24" viewBox="0 0 24 24" fill="none" stroke="currentColor" stroke-width="2" stroke-linecap="round" stroke-linejoin="round" class="lucide lucide-palette w-5 h-5 text-[oklch(0.55_0.14_55)]" data-loc="client/src/components/sections/AddOns.tsx:82"><circle cx="13.5" cy="6.5" r=".5" fill="currentColor"></circle><circle cx="17.5" cy="10.5" r=".5" fill="currentColor"></circle><circle cx="8.5" cy="7.5" r=".5" fill="currentColor"></circle><circle cx="6.5" cy="12.5" r=".5" fill="currentColor"></circle><path d="M12 2C6.5 2 2 6.5 2 12s4.5 10 10 10c.926 0 1.648-.746 1.648-1.688 0-.437-.18-.835-.437-1.125-.29-.289-.438-.652-.438-1.125a1.64 1.64 0 0 1 1.668-1.668h1.996c3.051 0 5.555-2.503 5.555-5.554C21.965 6.012 17.461 2 12 2z"></path></svg>